# xmcd
#
# Track frame offsets:
#	150
#	9611
#	11252
#	15659
#	20074
#	23674
#	28327
#	32976
#	38722
#	43720
#	49405
#	52562
#	57331
#	62843
#	67368
#	89391
#	93882
#	98406
#	103192
#	107608
#	111193
#	115685
#	120290
#	124472
#	129195
#	134373
#	137368
#	142674
#	146163
#	151403
#	160502
#	164947
#	168847
#	175430
#	182821
#	188906
#	194420
#	200646
#	207255
#	215178
#	226424
#	233975
#	244136
#
# Disc length: 3308 seconds
#
# Revision: 1
# Processed by: cddbd v1.5.2PL0 Copyright (c) Steve Scherf et al.
# Submitted via: audiograbber 1.83.01
#
DISCID=640cea2b
DTITLE=Francis Darizcuren - La Basse Intégrale
DYEAR=1997
DGENRE=
TTITLE0=Annonce Du Programme and Musique "Christiania"
TTITLE1=Harmoniques - Vérification De L'Accord
TTITLE2=Leçon 1 - Exercice 1
TTITLE3=Leçon 1 - Exercice 3
TTITLE4=Leçon 2 - Exercice 4
TTITLE5=Leçon 3 - Exercice 5
TTITLE6=Leçon 3 - Exercice 7
TTITLE7=Leçon 4 - Morceau N°1 "Le Début"
TTITLE8=Leçon 5 - Exercice 9
TTITLE9=Leçon 5 - Exercice 11
TTITLE10=Leçon 7 - Exercice 14
TTITLE11=Leçon 7 - Exercice 16
TTITLE12=Leçon 7 - Morceau N°2 "L'Anatole"
TTITLE13=Leçon 8 - Exercice 17 (Récapitulation)
TTITLE14=Leçon 8 - Morceau N°3 "Sweet and Quiet"
TTITLE15=Leçon 9 - Exercice 18
TTITLE16=Leçon 10 - Exercice 19 "Classic Blues"
TTITLE17=Leçon 10 - Exercice 20 "Modern Blues"
TTITLE18=Leçon 10 - Exercice 22 "Blues Rock"
TTITLE19=Leçon 11 - Exercice 23 (Récapitulation)
TTITLE20=Leçon 11 - Exercice 24 "Blues En Mineur"
TTITLE21=Leçon 12 - Exercice 25
TTITLE22=Leçon 12 - Exercice 26
TTITLE23=Leçon 12 - Exercice 27
TTITLE24=Leçon 12 - Morceau N°4 "Chick C'est Chic"
TTITLE25=Leçon 13 - Exercice 29
TTITLE26=Leçon 13 - Exercice 30
TTITLE27=Leçon 13 - Exercice 31
TTITLE28=Leçon 13 - Morceau N°5 "Rock À Ma Dur"
TTITLE29=Leçon 14 - Morceau N°6 "Blues Slow Rock"
TTITLE30=Leçon 15 - Morceau N°7 "Afro Cubain"
TTITLE31=Leçon 16 - Exercice 40
TTITLE32=Leçon 17 - Morceau N°8 "Drame À Tics"
TTITLE33=Leçon 19 - Morceau N°9 "Ça Se Corse !"
TTITLE34=Leçon 20 - Morceau N°10 "Latin Dream"
TTITLE35=Leçon 21 - Morceau N°11 "Cher Jaco"
TTITLE36=Leçon 22 - Morceau N°12 "Bercé Trop Près Du Mur"
TTITLE37=Leçon 23 - Morceau N°13 "The Way Of Slap"
TTITLE38=Leçon 23 - Morceau N°14 "Harmonics Live"
TTITLE39=Leçon 23 - Morceau N°16 "Écoutez Pour Voir"
TTITLE40=Leçon 25 - Morceau N°17 "Marche Harmonique II-V-I"
TTITLE41=Leçon 26 - Morceau N°18 "Trop Poli Pour Être Au Net"
TTITLE42=Désannonce Fin and Musique "Christiania"
EXTD=
EXTT0=
EXTT1=
EXTT2=
EXTT3=
EXTT4=
EXTT5=
EXTT6=
EXTT7=
EXTT8=
EXTT9=
EXTT10=
EXTT11=
EXTT12=
EXTT13=
EXTT14=
EXTT15=
EXTT16=
EXTT17=
EXTT18=
EXTT19=
EXTT20=
EXTT21=
EXTT22=
EXTT23=
EXTT24=
EXTT25=
EXTT26=
EXTT27=
EXTT28=
EXTT29=
EXTT30=
EXTT31=
EXTT32=
EXTT33=
EXTT34=
EXTT35=
EXTT36=
EXTT37=
EXTT38=
EXTT39=
EXTT40=
EXTT41=
EXTT42=
PLAYORDER=
